<svg width="39" height="39" viewBox="0 0 39 39" fill="none" xmlns="http://www.w3.org/2000/svg">
<rect width="39" height="39" rx="19.5" fill="white"/>
<path fill-rule="evenodd" clip-rule="evenodd" d="M25.3505 15.6C25.3505 18.8309 22.7313 21.45 19.5005 21.45C16.2696 21.45 13.6505 18.8309 13.6505 15.6C13.6505 12.3691 16.2696 9.75 19.5005 9.75C22.7313 9.75 25.3505 12.3691 25.3505 15.6ZM23.4005 15.6C23.4005 17.7539 21.6544 19.5 19.5005 19.5C17.3466 19.5 15.6005 17.7539 15.6005 15.6C15.6005 13.4461 17.3466 11.7 19.5005 11.7C21.6544 11.7 23.4005 13.4461 23.4005 15.6Z" fill="#4F378A"/>
<path d="M19.5005 24.375C13.188 24.375 7.80952 28.1077 5.76074 33.3372C6.25984 33.8328 6.7856 34.3016 7.33569 34.7413C8.86131 29.94 13.6473 26.325 19.5005 26.325C25.3537 26.325 30.1397 29.94 31.6653 34.7413C32.2154 34.3016 32.7411 33.8329 33.2402 33.3373C31.1915 28.1077 25.813 24.375 19.5005 24.375Z" fill="#4F378A"/>
</svg>
